<svg width="581" height="568" viewBox="0 0 581 568" fill="none" xmlns="http://www.w3.org/2000/svg" xmlns:xlink="http://www.w3.org/1999/xlink">
<path d="M0.5 16C0.5 7.16346 7.66344 0 16.5 0H564.5C573.337 0 580.5 7.16344 580.5 16V552C580.5 560.837 573.337 568 564.5 568H16.5C7.66345 568 0.5 560.837 0.5 552V16Z" fill="#090B0B"/>
<path d="M0.5 16C0.5 7.16346 7.66344 0 16.5 0H564.5C573.337 0 580.5 7.16344 580.5 16V552C580.5 560.837 573.337 568 564.5 568H16.5C7.66345 568 0.5 560.837 0.5 552V16Z" fill="url(#pattern0_6297_4228)" fill-opacity="0.2"/>
<path d="M0.5 16C0.5 7.16346 7.66344 0 16.5 0H564.5C573.337 0 580.5 7.16344 580.5 16V552C580.5 560.837 573.337 568 564.5 568H16.5C7.66345 568 0.5 560.837 0.5 552V16Z" stroke="#161717"/>
<rect x="84" y="69.5" width="414" height="239" rx="23.5" stroke="#686D6D" stroke-dasharray="4 6"/>
<rect x="131" y="85" width="25" height="22" rx="6" fill="#202222"/>
<path d="M143.086 101V91.4688L140.273 92.6094V91L144.297 89.4766H144.875V101H143.086Z" fill="#9CA0A0"/>
<path d="M123.5 115.5H163.5C169.851 115.5 175 120.649 175 127V167C175 173.351 169.851 178.5 163.5 178.5H123.5C117.149 178.5 112 173.351 112 167V127C112 120.649 117.149 115.5 123.5 115.5Z" fill="#161717"/>
<path d="M123.5 115.5H163.5C169.851 115.5 175 120.649 175 127V167C175 173.351 169.851 178.5 163.5 178.5H123.5C117.149 178.5 112 173.351 112 167V127C112 120.649 117.149 115.5 123.5 115.5Z" stroke="#3C3E3E"/>
<path opacity="0.5" d="M128.504 160.065C128.504 161.135 129.341 162 130.379 162H143.585C142.929 160.53 142.565 158.891 142.565 157.161C142.565 156.835 142.577 156.514 142.606 156.194H141.628V143.613H145.378V149.48C146.181 148.536 147.13 147.732 148.19 147.103V143.613H151.94V145.712C152.549 145.609 153.176 145.548 153.815 145.548C154.131 145.548 154.442 145.56 154.752 145.591V143.613H156.627C157.477 143.613 158.221 143.02 158.438 142.173C158.655 141.327 158.291 140.431 157.553 139.996L144.429 132.254H144.435C143.86 131.915 143.151 131.915 142.571 132.254L129.447 139.996C128.709 140.431 128.345 141.327 128.562 142.173C128.779 143.02 129.529 143.613 130.379 143.613H132.253V156.194L129.254 158.516C128.779 158.879 128.504 159.454 128.504 160.065ZM135.066 143.613H138.816V156.194H135.066V143.613ZM141.628 138.774C141.628 137.704 142.466 136.839 143.503 136.839C144.54 136.839 145.378 137.704 145.378 138.774C145.378 139.845 144.54 140.71 143.503 140.71C142.466 140.71 141.628 139.845 141.628 138.774Z" fill="#9CA0A0"/>
<path d="M153.5 164C149.083 164 145.5 160.417 145.5 156C145.5 151.583 149.083 148 153.5 148C157.917 148 161.5 151.583 161.5 156C161.5 160.417 157.917 164 153.5 164ZM156.794 152.706C156.489 152.4 156.022 152.361 155.678 152.589L155.539 152.706L153.5 154.744L151.461 152.706L151.322 152.589C150.978 152.361 150.506 152.4 150.206 152.706C149.906 153.011 149.861 153.478 150.089 153.822L150.206 153.961L152.244 156L150.206 158.039L150.089 158.178C149.861 158.522 149.9 158.994 150.206 159.294C150.511 159.594 150.978 159.639 151.322 159.411L151.461 159.294L153.5 157.256L155.539 159.294L155.678 159.411C156.022 159.639 156.494 159.6 156.794 159.294C157.094 158.989 157.139 158.522 156.911 158.178L156.794 158.039L154.756 156L156.794 153.961L156.911 153.822C157.139 153.478 157.1 153.006 156.794 152.706Z" fill="#BE6464"/>
<rect x="99.5" y="187" width="88" height="22" rx="6" fill="#161717"/>
<path d="M108.648 206.258V194.828H109.938L109.992 195.898H110.039C110.247 195.56 110.565 195.271 110.992 195.031C111.424 194.792 111.924 194.672 112.492 194.672C113.529 194.672 114.357 195.06 114.977 195.836C115.596 196.612 115.906 197.596 115.906 198.789V199.039C115.906 200.232 115.596 201.216 114.977 201.992C114.357 202.768 113.529 203.156 112.492 203.156C111.924 203.156 111.438 203.055 111.031 202.852C110.63 202.643 110.31 202.37 110.07 202.031V206.258H108.648ZM110.07 200.586C110.232 200.951 110.495 201.276 110.859 201.562C111.224 201.844 111.667 201.984 112.188 201.984C112.969 201.984 113.539 201.703 113.898 201.141C114.263 200.573 114.445 199.872 114.445 199.039V198.789C114.445 197.956 114.263 197.258 113.898 196.695C113.539 196.128 112.969 195.844 112.188 195.844C111.667 195.844 111.224 195.987 110.859 196.273C110.495 196.56 110.232 196.883 110.07 197.242V200.586ZM117.711 203V194.828H119L119.055 195.883H119.102C119.31 195.539 119.583 195.24 119.922 194.984C120.26 194.729 120.664 194.602 121.133 194.602C121.247 194.602 121.367 194.615 121.492 194.641C121.617 194.661 121.706 194.682 121.758 194.703V196.023C121.654 196.003 121.544 195.987 121.43 195.977C121.315 195.966 121.19 195.961 121.055 195.961C120.591 195.961 120.193 196.083 119.859 196.328C119.531 196.573 119.289 196.88 119.133 197.25V203H117.711ZM122.484 199.039V198.789C122.484 197.555 122.833 196.549 123.531 195.773C124.229 194.992 125.161 194.602 126.328 194.602C127.495 194.602 128.427 194.992 129.125 195.773C129.823 196.549 130.172 197.555 130.172 198.789V199.039C130.172 200.273 129.823 201.281 129.125 202.062C128.427 202.844 127.495 203.234 126.328 203.234C125.161 203.234 124.229 202.844 123.531 202.062C122.833 201.281 122.484 200.273 122.484 199.039ZM123.938 198.789V199.039C123.938 199.888 124.138 200.604 124.539 201.188C124.94 201.771 125.536 202.062 126.328 202.062C127.12 202.062 127.714 201.771 128.109 201.188C128.51 200.604 128.711 199.888 128.711 199.039V198.789C128.711 197.94 128.51 197.224 128.109 196.641C127.714 196.057 127.12 195.766 126.328 195.766C125.536 195.766 124.94 196.057 124.539 196.641C124.138 197.224 123.938 197.94 123.938 198.789ZM130.703 194.828H132.086L134.07 200.305C134.143 200.513 134.203 200.708 134.25 200.891C134.302 201.073 134.339 201.216 134.359 201.32H134.406C134.427 201.216 134.461 201.073 134.508 200.891C134.56 200.708 134.622 200.513 134.695 200.305L136.664 194.828H138.016L134.906 203H133.812L130.703 194.828ZM139.234 203V194.828H140.656V203H139.234ZM139.055 192.336C139.055 192.091 139.13 191.888 139.281 191.727C139.438 191.56 139.659 191.477 139.945 191.477C140.232 191.477 140.451 191.56 140.602 191.727C140.758 191.888 140.836 192.091 140.836 192.336C140.836 192.576 140.758 192.779 140.602 192.945C140.451 193.107 140.232 193.188 139.945 193.188C139.659 193.188 139.438 193.107 139.281 192.945C139.13 192.779 139.055 192.576 139.055 192.336ZM142.531 199.039V198.789C142.531 197.596 142.841 196.612 143.461 195.836C144.081 195.06 144.909 194.672 145.945 194.672C146.513 194.672 146.997 194.776 147.398 194.984C147.805 195.188 148.125 195.456 148.359 195.789V191.031H149.789V203H148.5L148.438 201.93H148.391C148.182 202.268 147.865 202.557 147.438 202.797C147.01 203.036 146.513 203.156 145.945 203.156C144.909 203.156 144.081 202.768 143.461 201.992C142.841 201.216 142.531 200.232 142.531 199.039ZM143.984 199.039C143.984 199.872 144.167 200.573 144.531 201.141C144.896 201.703 145.469 201.984 146.25 201.984C146.771 201.984 147.214 201.844 147.578 201.562C147.943 201.276 148.203 200.951 148.359 200.586V197.242C148.203 196.878 147.943 196.555 147.578 196.273C147.214 195.987 146.771 195.844 146.25 195.844C145.469 195.844 144.896 196.128 144.531 196.695C144.167 197.258 143.984 197.956 143.984 198.789V199.039ZM151.594 199.039V198.789C151.594 197.555 151.93 196.549 152.602 195.773C153.279 194.992 154.172 194.602 155.281 194.602C156.391 194.602 157.245 194.966 157.844 195.695C158.443 196.419 158.742 197.404 158.742 198.648V199.234H152.461V198.094H157.305V197.914C157.305 197.32 157.135 196.815 156.797 196.398C156.464 195.977 155.977 195.766 155.336 195.766C154.57 195.766 153.997 196.057 153.617 196.641C153.237 197.224 153.047 197.94 153.047 198.789V199.039C153.047 199.888 153.247 200.604 153.648 201.188C154.049 201.771 154.669 202.062 155.508 202.062C156.029 202.062 156.474 201.951 156.844 201.727C157.219 201.497 157.523 201.227 157.758 200.914L158.68 201.641C158.419 202.031 158.018 202.396 157.477 202.734C156.94 203.068 156.284 203.234 155.508 203.234C154.242 203.234 153.273 202.844 152.602 202.062C151.93 201.281 151.594 200.273 151.594 199.039ZM160.508 203V194.828H161.797L161.852 195.883H161.898C162.107 195.539 162.38 195.24 162.719 194.984C163.057 194.729 163.461 194.602 163.93 194.602C164.044 194.602 164.164 194.615 164.289 194.641C164.414 194.661 164.503 194.682 164.555 194.703V196.023C164.451 196.003 164.341 195.987 164.227 195.977C164.112 195.966 163.987 195.961 163.852 195.961C163.388 195.961 162.99 196.083 162.656 196.328C162.328 196.573 162.086 196.88 161.93 197.25V203H160.508ZM168.641 203L172.922 191.547H174.266L178.547 203H177.016L173.906 194.367C173.844 194.19 173.789 194.023 173.742 193.867C173.695 193.706 173.654 193.536 173.617 193.359H173.539C173.503 193.536 173.461 193.706 173.414 193.867C173.367 194.023 173.312 194.19 173.25 194.367L170.109 203H168.641ZM170.477 200.016L170.922 198.805H176.242L176.688 200.016H170.477Z" fill="#9CA0A0"/>
<rect x="278.5" y="85" width="25" height="22" rx="6" fill="#202222"/>
<path d="M287.25 101V99.7969L291.242 95.4062C291.742 94.8646 292.125 94.3802 292.391 93.9531C292.661 93.5208 292.797 93.0599 292.797 92.5703C292.797 92.0859 292.641 91.6719 292.328 91.3281C292.016 90.9844 291.576 90.8125 291.008 90.8125C290.44 90.8125 289.966 91 289.586 91.375C289.211 91.75 289.023 92.2865 289.023 92.9844V93.1172H287.234V92.9688C287.234 91.9167 287.589 91.0599 288.297 90.3984C289.005 89.7318 289.909 89.3984 291.008 89.3984C292.117 89.3984 292.992 89.7005 293.633 90.3047C294.273 90.9036 294.594 91.6302 294.594 92.4844C294.594 93.2292 294.391 93.8984 293.984 94.4922C293.578 95.0859 293.081 95.6979 292.492 96.3281L289.523 99.5234H294.875V101H287.25Z" fill="#9CA0A0"/>
<path d="M271 115.5H311C317.351 115.5 322.5 120.649 322.5 127V167C322.5 173.351 317.351 178.5 311 178.5H271C264.649 178.5 259.5 173.351 259.5 167V127C259.5 120.649 264.649 115.5 271 115.5Z" fill="#161717"/>
<path d="M271 115.5H311C317.351 115.5 322.5 120.649 322.5 127V167C322.5 173.351 317.351 178.5 311 178.5H271C264.649 178.5 259.5 173.351 259.5 167V127C259.5 120.649 264.649 115.5 271 115.5Z" stroke="#3C3E3E"/>
<path opacity="0.5" d="M276.004 160.065C276.004 161.135 276.841 162 277.879 162H291.085C290.429 160.53 290.065 158.891 290.065 157.161C290.065 156.835 290.077 156.514 290.106 156.194H289.128V143.613H292.878V149.48C293.681 148.536 294.63 147.732 295.69 147.103V143.613H299.44V145.712C300.049 145.609 300.676 145.548 301.315 145.548C301.631 145.548 301.942 145.56 302.252 145.591V143.613H304.127C304.977 143.613 305.721 143.02 305.938 142.173C306.155 141.327 305.791 140.431 305.053 139.996L291.929 132.254H291.935C291.36 131.915 290.651 131.915 290.071 132.254L276.947 139.996C276.209 140.431 275.845 141.327 276.062 142.173C276.279 143.02 277.029 143.613 277.879 143.613H279.753V156.194L276.754 158.516C276.279 158.879 276.004 159.454 276.004 160.065ZM282.566 143.613H286.316V156.194H282.566V143.613ZM289.128 138.774C289.128 137.704 289.966 136.839 291.003 136.839C292.04 136.839 292.878 137.704 292.878 138.774C292.878 139.845 292.04 140.71 291.003 140.71C289.966 140.71 289.128 139.845 289.128 138.774Z" fill="#9CA0A0"/>
<path d="M301 164C296.583 164 293 160.417 293 156C293 151.583 296.583 148 301 148C305.417 148 309 151.583 309 156C309 160.417 305.417 164 301 164ZM304.294 152.706C303.989 152.4 303.522 152.361 303.178 152.589L303.039 152.706L301 154.744L298.961 152.706L298.822 152.589C298.478 152.361 298.006 152.4 297.706 152.706C297.406 153.011 297.361 153.478 297.589 153.822L297.706 153.961L299.744 156L297.706 158.039L297.589 158.178C297.361 158.522 297.4 158.994 297.706 159.294C298.011 159.594 298.478 159.639 298.822 159.411L298.961 159.294L301 157.256L303.039 159.294L303.178 159.411C303.522 159.639 303.994 159.6 304.294 159.294C304.594 158.989 304.639 158.522 304.411 158.178L304.294 158.039L302.256 156L304.294 153.961L304.411 153.822C304.639 153.478 304.6 153.006 304.294 152.706Z" fill="#BE6464"/>
<rect x="247.5" y="187" width="87" height="22" rx="6" fill="#161717"/>
<path d="M256.648 206.258V194.828H257.938L257.992 195.898H258.039C258.247 195.56 258.565 195.271 258.992 195.031C259.424 194.792 259.924 194.672 260.492 194.672C261.529 194.672 262.357 195.06 262.977 195.836C263.596 196.612 263.906 197.596 263.906 198.789V199.039C263.906 200.232 263.596 201.216 262.977 201.992C262.357 202.768 261.529 203.156 260.492 203.156C259.924 203.156 259.438 203.055 259.031 202.852C258.63 202.643 258.31 202.37 258.07 202.031V206.258H256.648ZM258.07 200.586C258.232 200.951 258.495 201.276 258.859 201.562C259.224 201.844 259.667 201.984 260.188 201.984C260.969 201.984 261.539 201.703 261.898 201.141C262.263 200.573 262.445 199.872 262.445 199.039V198.789C262.445 197.956 262.263 197.258 261.898 196.695C261.539 196.128 260.969 195.844 260.188 195.844C259.667 195.844 259.224 195.987 258.859 196.273C258.495 196.56 258.232 196.883 258.07 197.242V200.586ZM265.711 203V194.828H267L267.055 195.883H267.102C267.31 195.539 267.583 195.24 267.922 194.984C268.26 194.729 268.664 194.602 269.133 194.602C269.247 194.602 269.367 194.615 269.492 194.641C269.617 194.661 269.706 194.682 269.758 194.703V196.023C269.654 196.003 269.544 195.987 269.43 195.977C269.315 195.966 269.19 195.961 269.055 195.961C268.591 195.961 268.193 196.083 267.859 196.328C267.531 196.573 267.289 196.88 267.133 197.25V203H265.711ZM270.484 199.039V198.789C270.484 197.555 270.833 196.549 271.531 195.773C272.229 194.992 273.161 194.602 274.328 194.602C275.495 194.602 276.427 194.992 277.125 195.773C277.823 196.549 278.172 197.555 278.172 198.789V199.039C278.172 200.273 277.823 201.281 277.125 202.062C276.427 202.844 275.495 203.234 274.328 203.234C273.161 203.234 272.229 202.844 271.531 202.062C270.833 201.281 270.484 200.273 270.484 199.039ZM271.938 198.789V199.039C271.938 199.888 272.138 200.604 272.539 201.188C272.94 201.771 273.536 202.062 274.328 202.062C275.12 202.062 275.714 201.771 276.109 201.188C276.51 200.604 276.711 199.888 276.711 199.039V198.789C276.711 197.94 276.51 197.224 276.109 196.641C275.714 196.057 275.12 195.766 274.328 195.766C273.536 195.766 272.94 196.057 272.539 196.641C272.138 197.224 271.938 197.94 271.938 198.789ZM278.703 194.828H280.086L282.07 200.305C282.143 200.513 282.203 200.708 282.25 200.891C282.302 201.073 282.339 201.216 282.359 201.32H282.406C282.427 201.216 282.461 201.073 282.508 200.891C282.56 200.708 282.622 200.513 282.695 200.305L284.664 194.828H286.016L282.906 203H281.812L278.703 194.828ZM287.234 203V194.828H288.656V203H287.234ZM287.055 192.336C287.055 192.091 287.13 191.888 287.281 191.727C287.438 191.56 287.659 191.477 287.945 191.477C288.232 191.477 288.451 191.56 288.602 191.727C288.758 191.888 288.836 192.091 288.836 192.336C288.836 192.576 288.758 192.779 288.602 192.945C288.451 193.107 288.232 193.188 287.945 193.188C287.659 193.188 287.438 193.107 287.281 192.945C287.13 192.779 287.055 192.576 287.055 192.336ZM290.531 199.039V198.789C290.531 197.596 290.841 196.612 291.461 195.836C292.081 195.06 292.909 194.672 293.945 194.672C294.513 194.672 294.997 194.776 295.398 194.984C295.805 195.188 296.125 195.456 296.359 195.789V191.031H297.789V203H296.5L296.438 201.93H296.391C296.182 202.268 295.865 202.557 295.438 202.797C295.01 203.036 294.513 203.156 293.945 203.156C292.909 203.156 292.081 202.768 291.461 201.992C290.841 201.216 290.531 200.232 290.531 199.039ZM291.984 199.039C291.984 199.872 292.167 200.573 292.531 201.141C292.896 201.703 293.469 201.984 294.25 201.984C294.771 201.984 295.214 201.844 295.578 201.562C295.943 201.276 296.203 200.951 296.359 200.586V197.242C296.203 196.878 295.943 196.555 295.578 196.273C295.214 195.987 294.771 195.844 294.25 195.844C293.469 195.844 292.896 196.128 292.531 196.695C292.167 197.258 291.984 197.956 291.984 198.789V199.039ZM299.594 199.039V198.789C299.594 197.555 299.93 196.549 300.602 195.773C301.279 194.992 302.172 194.602 303.281 194.602C304.391 194.602 305.245 194.966 305.844 195.695C306.443 196.419 306.742 197.404 306.742 198.648V199.234H300.461V198.094H305.305V197.914C305.305 197.32 305.135 196.815 304.797 196.398C304.464 195.977 303.977 195.766 303.336 195.766C302.57 195.766 301.997 196.057 301.617 196.641C301.237 197.224 301.047 197.94 301.047 198.789V199.039C301.047 199.888 301.247 200.604 301.648 201.188C302.049 201.771 302.669 202.062 303.508 202.062C304.029 202.062 304.474 201.951 304.844 201.727C305.219 201.497 305.523 201.227 305.758 200.914L306.68 201.641C306.419 202.031 306.018 202.396 305.477 202.734C304.94 203.068 304.284 203.234 303.508 203.234C302.242 203.234 301.273 202.844 300.602 202.062C299.93 201.281 299.594 200.273 299.594 199.039ZM308.508 203V194.828H309.797L309.852 195.883H309.898C310.107 195.539 310.38 195.24 310.719 194.984C311.057 194.729 311.461 194.602 311.93 194.602C312.044 194.602 312.164 194.615 312.289 194.641C312.414 194.661 312.503 194.682 312.555 194.703V196.023C312.451 196.003 312.341 195.987 312.227 195.977C312.112 195.966 311.987 195.961 311.852 195.961C311.388 195.961 310.99 196.083 310.656 196.328C310.328 196.573 310.086 196.88 309.93 197.25V203H308.508ZM317.953 203V191.625H321.672C322.807 191.625 323.698 191.867 324.344 192.352C324.995 192.836 325.32 193.596 325.32 194.633C325.32 195.258 325.161 195.768 324.844 196.164C324.531 196.555 324.143 196.833 323.68 197V197.031C324.247 197.198 324.714 197.508 325.078 197.961C325.443 198.409 325.625 198.997 325.625 199.727C325.625 200.768 325.284 201.576 324.602 202.148C323.924 202.716 323.026 203 321.906 203H317.953ZM319.398 201.789H321.906C322.682 201.789 323.253 201.604 323.617 201.234C323.982 200.859 324.164 200.357 324.164 199.727C324.164 199.096 323.982 198.599 323.617 198.234C323.253 197.865 322.682 197.68 321.906 197.68H319.398V201.789ZM319.398 196.477H321.672C322.448 196.477 323.008 196.315 323.352 195.992C323.695 195.664 323.867 195.211 323.867 194.633C323.867 194.055 323.695 193.612 323.352 193.305C323.008 192.992 322.448 192.836 321.672 192.836H319.398V196.477Z" fill="#9CA0A0"/>
<rect x="426" y="85" width="25" height="22" rx="6" fill="#FFD400"/>
<path d="M434.523 97.9766V97.8594H436.281V97.9688C436.281 98.5573 436.466 99.013 436.836 99.3359C437.206 99.6589 437.706 99.8203 438.336 99.8203C438.971 99.8203 439.471 99.6589 439.836 99.3359C440.201 99.0078 440.383 98.5 440.383 97.8125C440.383 97.1302 440.174 96.6172 439.758 96.2734C439.346 95.9297 438.776 95.7578 438.047 95.7578H437.102V94.3984H437.977C438.628 94.3984 439.13 94.237 439.484 93.9141C439.839 93.5859 440.016 93.125 440.016 92.5312C440.016 91.9531 439.865 91.5208 439.562 91.2344C439.26 90.9479 438.846 90.8047 438.32 90.8047C437.768 90.8047 437.336 90.9505 437.023 91.2422C436.711 91.5286 436.555 91.9427 436.555 92.4844V92.5781H434.805V92.4844C434.805 91.6198 435.125 90.888 435.766 90.2891C436.406 89.6901 437.263 89.3906 438.336 89.3906C439.404 89.3906 440.25 89.6745 440.875 90.2422C441.5 90.8047 441.812 91.5182 441.812 92.3828C441.812 92.9401 441.669 93.4557 441.383 93.9297C441.096 94.4036 440.651 94.7656 440.047 95.0156V95.0469C440.698 95.2083 441.219 95.5339 441.609 96.0234C442.005 96.513 442.203 97.1198 442.203 97.8438C442.203 98.8906 441.846 99.7161 441.133 100.32C440.424 100.924 439.49 101.227 438.328 101.227C437.125 101.227 436.19 100.924 435.523 100.32C434.857 99.7161 434.523 98.9349 434.523 97.9766Z" fill="#040505"/>
<rect x="407" y="115.5" width="63" height="63" rx="11.5" fill="#161717"/>
<rect x="407" y="115.5" width="63" height="63" rx="11.5" stroke="#3C3E3E"/>
<path opacity="0.5" d="M423.504 160.065C423.504 161.135 424.341 162 425.379 162H438.585C437.929 160.53 437.565 158.891 437.565 157.161C437.565 156.835 437.577 156.514 437.606 156.194H436.628V143.613H440.378V149.48C441.181 148.536 442.13 147.732 443.19 147.103V143.613H446.94V145.712C447.549 145.609 448.176 145.548 448.815 145.548C449.131 145.548 449.442 145.56 449.752 145.591V143.613H451.627C452.477 143.613 453.221 143.02 453.438 142.173C453.655 141.327 453.291 140.431 452.553 139.996L439.429 132.254H439.435C438.86 131.915 438.151 131.915 437.571 132.254L424.447 139.996C423.709 140.431 423.345 141.327 423.562 142.173C423.779 143.02 424.529 143.613 425.379 143.613H427.253V156.194L424.254 158.516C423.779 158.879 423.504 159.454 423.504 160.065ZM430.066 143.613H433.816V156.194H430.066V143.613ZM436.628 138.774C436.628 137.704 437.466 136.839 438.503 136.839C439.54 136.839 440.378 137.704 440.378 138.774C440.378 139.845 439.54 140.71 438.503 140.71C437.466 140.71 436.628 139.845 436.628 138.774Z" fill="#9CA0A0"/>
<path d="M448.5 164C444.083 164 440.5 160.417 440.5 156C440.5 151.583 444.083 148 448.5 148C452.917 148 456.5 151.583 456.5 156C456.5 160.417 452.917 164 448.5 164ZM451.689 152.617C451.294 152.328 450.739 152.417 450.45 152.811L447.506 156.856L446.017 155.372L445.878 155.256C445.533 155.028 445.061 155.067 444.761 155.372C444.461 155.678 444.417 156.144 444.644 156.489L444.761 156.628L446.983 158.85C447.167 159.033 447.422 159.128 447.683 159.106C447.944 159.083 448.178 158.956 448.333 158.744L451.889 153.856C452.178 153.461 452.089 152.906 451.694 152.617H451.689Z" fill="#2BB162"/>
<rect x="394.5" y="187" width="88" height="22" rx="6" fill="#161717"/>
<path d="M403.648 206.258V194.828H404.938L404.992 195.898H405.039C405.247 195.56 405.565 195.271 405.992 195.031C406.424 194.792 406.924 194.672 407.492 194.672C408.529 194.672 409.357 195.06 409.977 195.836C410.596 196.612 410.906 197.596 410.906 198.789V199.039C410.906 200.232 410.596 201.216 409.977 201.992C409.357 202.768 408.529 203.156 407.492 203.156C406.924 203.156 406.438 203.055 406.031 202.852C405.63 202.643 405.31 202.37 405.07 202.031V206.258H403.648ZM405.07 200.586C405.232 200.951 405.495 201.276 405.859 201.562C406.224 201.844 406.667 201.984 407.188 201.984C407.969 201.984 408.539 201.703 408.898 201.141C409.263 200.573 409.445 199.872 409.445 199.039V198.789C409.445 197.956 409.263 197.258 408.898 196.695C408.539 196.128 407.969 195.844 407.188 195.844C406.667 195.844 406.224 195.987 405.859 196.273C405.495 196.56 405.232 196.883 405.07 197.242V200.586ZM412.711 203V194.828H414L414.055 195.883H414.102C414.31 195.539 414.583 195.24 414.922 194.984C415.26 194.729 415.664 194.602 416.133 194.602C416.247 194.602 416.367 194.615 416.492 194.641C416.617 194.661 416.706 194.682 416.758 194.703V196.023C416.654 196.003 416.544 195.987 416.43 195.977C416.315 195.966 416.19 195.961 416.055 195.961C415.591 195.961 415.193 196.083 414.859 196.328C414.531 196.573 414.289 196.88 414.133 197.25V203H412.711ZM417.484 199.039V198.789C417.484 197.555 417.833 196.549 418.531 195.773C419.229 194.992 420.161 194.602 421.328 194.602C422.495 194.602 423.427 194.992 424.125 195.773C424.823 196.549 425.172 197.555 425.172 198.789V199.039C425.172 200.273 424.823 201.281 424.125 202.062C423.427 202.844 422.495 203.234 421.328 203.234C420.161 203.234 419.229 202.844 418.531 202.062C417.833 201.281 417.484 200.273 417.484 199.039ZM418.938 198.789V199.039C418.938 199.888 419.138 200.604 419.539 201.188C419.94 201.771 420.536 202.062 421.328 202.062C422.12 202.062 422.714 201.771 423.109 201.188C423.51 200.604 423.711 199.888 423.711 199.039V198.789C423.711 197.94 423.51 197.224 423.109 196.641C422.714 196.057 422.12 195.766 421.328 195.766C420.536 195.766 419.94 196.057 419.539 196.641C419.138 197.224 418.938 197.94 418.938 198.789ZM425.703 194.828H427.086L429.07 200.305C429.143 200.513 429.203 200.708 429.25 200.891C429.302 201.073 429.339 201.216 429.359 201.32H429.406C429.427 201.216 429.461 201.073 429.508 200.891C429.56 200.708 429.622 200.513 429.695 200.305L431.664 194.828H433.016L429.906 203H428.812L425.703 194.828ZM434.234 203V194.828H435.656V203H434.234ZM434.055 192.336C434.055 192.091 434.13 191.888 434.281 191.727C434.438 191.56 434.659 191.477 434.945 191.477C435.232 191.477 435.451 191.56 435.602 191.727C435.758 191.888 435.836 192.091 435.836 192.336C435.836 192.576 435.758 192.779 435.602 192.945C435.451 193.107 435.232 193.188 434.945 193.188C434.659 193.188 434.438 193.107 434.281 192.945C434.13 192.779 434.055 192.576 434.055 192.336ZM437.531 199.039V198.789C437.531 197.596 437.841 196.612 438.461 195.836C439.081 195.06 439.909 194.672 440.945 194.672C441.513 194.672 441.997 194.776 442.398 194.984C442.805 195.188 443.125 195.456 443.359 195.789V191.031H444.789V203H443.5L443.438 201.93H443.391C443.182 202.268 442.865 202.557 442.438 202.797C442.01 203.036 441.513 203.156 440.945 203.156C439.909 203.156 439.081 202.768 438.461 201.992C437.841 201.216 437.531 200.232 437.531 199.039ZM438.984 199.039C438.984 199.872 439.167 200.573 439.531 201.141C439.896 201.703 440.469 201.984 441.25 201.984C441.771 201.984 442.214 201.844 442.578 201.562C442.943 201.276 443.203 200.951 443.359 200.586V197.242C443.203 196.878 442.943 196.555 442.578 196.273C442.214 195.987 441.771 195.844 441.25 195.844C440.469 195.844 439.896 196.128 439.531 196.695C439.167 197.258 438.984 197.956 438.984 198.789V199.039ZM446.594 199.039V198.789C446.594 197.555 446.93 196.549 447.602 195.773C448.279 194.992 449.172 194.602 450.281 194.602C451.391 194.602 452.245 194.966 452.844 195.695C453.443 196.419 453.742 197.404 453.742 198.648V199.234H447.461V198.094H452.305V197.914C452.305 197.32 452.135 196.815 451.797 196.398C451.464 195.977 450.977 195.766 450.336 195.766C449.57 195.766 448.997 196.057 448.617 196.641C448.237 197.224 448.047 197.94 448.047 198.789V199.039C448.047 199.888 448.247 200.604 448.648 201.188C449.049 201.771 449.669 202.062 450.508 202.062C451.029 202.062 451.474 201.951 451.844 201.727C452.219 201.497 452.523 201.227 452.758 200.914L453.68 201.641C453.419 202.031 453.018 202.396 452.477 202.734C451.94 203.068 451.284 203.234 450.508 203.234C449.242 203.234 448.273 202.844 447.602 202.062C446.93 201.281 446.594 200.273 446.594 199.039ZM455.508 203V194.828H456.797L456.852 195.883H456.898C457.107 195.539 457.38 195.24 457.719 194.984C458.057 194.729 458.461 194.602 458.93 194.602C459.044 194.602 459.164 194.615 459.289 194.641C459.414 194.661 459.503 194.682 459.555 194.703V196.023C459.451 196.003 459.341 195.987 459.227 195.977C459.112 195.966 458.987 195.961 458.852 195.961C458.388 195.961 457.99 196.083 457.656 196.328C457.328 196.573 457.086 196.88 456.93 197.25V203H455.508ZM464.531 197.672V196.953C464.531 195.198 464.977 193.833 465.867 192.859C466.758 191.88 467.875 191.391 469.219 191.391C470.562 191.391 471.615 191.76 472.375 192.5C473.135 193.24 473.516 194.133 473.516 195.18V195.266H472.047V195.18C472.047 194.445 471.812 193.841 471.344 193.367C470.875 192.888 470.167 192.648 469.219 192.648C468.286 192.648 467.518 193.003 466.914 193.711C466.315 194.419 466.016 195.5 466.016 196.953V197.672C466.016 199.016 466.315 200.07 466.914 200.836C467.513 201.596 468.281 201.977 469.219 201.977C470.115 201.977 470.792 201.734 471.25 201.25C471.708 200.766 471.971 200.164 472.039 199.445L472.047 199.359H473.516L473.508 199.445C473.409 200.487 473.005 201.38 472.297 202.125C471.589 202.865 470.562 203.234 469.219 203.234C467.87 203.234 466.75 202.747 465.859 201.773C464.974 200.794 464.531 199.427 464.531 197.672Z" fill="#9CA0A0"/>
<path d="M291 285.5C291 272.816 280.717 262.533 268.033 262.533L168 262.533C154.745 262.533 144 251.788 144 238.533L144 217.5" stroke="#202222" stroke-width="2" stroke-linecap="round"/>
<path d="M291.5 218C291.5 217.448 291.052 217 290.5 217C289.948 217 289.5 217.448 289.5 218L290.5 218L291.5 218ZM290.5 287L291.5 287L291.5 218L290.5 218L289.5 218L289.5 287L290.5 287Z" fill="#202222"/>
<path d="M291 286.5C291 287.052 290.552 287.5 290 287.5C289.448 287.5 289 287.052 289 286.5L290 286.5L291 286.5ZM438 217.5L443.774 227.5L432.226 227.5L438 217.5ZM438 239.195L437 239.195L437 226.5L438 226.5L439 226.5L439 239.195L438 239.195ZM313.305 263.195L313.305 262.195L414 262.195L414 263.195L414 264.195L313.305 264.195L313.305 263.195ZM290 286.5L289 286.5C289 273.077 299.882 262.195 313.305 262.195L313.305 263.195L313.305 264.195C300.986 264.195 291 274.181 291 286.5L290 286.5ZM438 239.195L439 239.195C439 253.002 427.807 264.195 414 264.195L414 263.195L414 262.195C426.703 262.195 437 251.898 437 239.195L438 239.195Z" fill="#3C3E3E"/>
<path d="M290 286.5C290 273.629 300.434 263.195 313.305 263.195L414 263.195C427.255 263.195 438 252.45 438 239.195L438 226" stroke="#28B06A" stroke-width="2" stroke-linecap="round" stroke-dasharray="10 10"/>
<g filter="url(#filter0_d_6297_4228)">
<rect x="245" y="296" width="92" height="26" rx="6" fill="#FFD400"/>
<path d="M257.812 302.406V303.5H259.344V302.406C259.344 302.051 259.645 301.75 260 301.75C260.355 301.75 260.656 302.051 260.656 302.406V303.5H262.188V302.406C262.188 302.051 262.488 301.75 262.844 301.75C263.199 301.75 263.5 302.051 263.5 302.406V303.5C264.457 303.5 265.25 304.293 265.25 305.25H266.344C266.699 305.25 267 305.551 267 305.906C267 306.262 266.699 306.562 266.344 306.562H265.25V308.094H266.344C266.699 308.094 267 308.395 267 308.75C267 309.105 266.699 309.406 266.344 309.406H265.25V310.938H266.344C266.699 310.938 267 311.238 267 311.594C267 311.949 266.699 312.25 266.344 312.25H265.25C265.25 313.207 264.457 314 263.5 314V315.094C263.5 315.449 263.199 315.75 262.844 315.75C262.488 315.75 262.188 315.449 262.188 315.094V314H260.656V315.094C260.656 315.449 260.355 315.75 260 315.75C259.645 315.75 259.344 315.449 259.344 315.094V314H257.812V315.094C257.812 315.449 257.512 315.75 257.156 315.75C256.801 315.75 256.5 315.449 256.5 315.094V314C255.543 314 254.75 313.207 254.75 312.25H253.656C253.301 312.25 253 311.949 253 311.594C253 311.238 253.301 310.938 253.656 310.938H254.75V309.406H253.656C253.301 309.406 253 309.105 253 308.75C253 308.395 253.301 308.094 253.656 308.094H254.75V306.562H253.656C253.301 306.562 253 306.262 253 305.906C253 305.551 253.301 305.25 253.656 305.25H254.75C254.75 304.293 255.543 303.5 256.5 303.5V302.406C256.5 302.051 256.801 301.75 257.156 301.75C257.512 301.75 257.812 302.051 257.812 302.406ZM263.938 305.25C263.938 305.004 263.746 304.812 263.5 304.812H256.5C256.254 304.812 256.062 305.004 256.062 305.25V312.25C256.062 312.496 256.254 312.688 256.5 312.688H263.5C263.746 312.688 263.938 312.496 263.938 312.25V305.25ZM258.25 306.125H261.75C262.242 306.125 262.625 306.508 262.625 307V310.5C262.625 310.992 262.242 311.375 261.75 311.375H258.25C257.758 311.375 257.375 310.992 257.375 310.5V307C257.375 306.508 257.758 306.125 258.25 306.125ZM258.688 307.438V310.062H261.312V307.438H258.688Z" fill="#74470F"/>
<path d="M274.273 314V302.625H278.102C279.352 302.625 280.318 302.932 281 303.547C281.682 304.161 282.023 304.995 282.023 306.047C282.023 307.099 281.68 307.943 280.992 308.578C280.31 309.208 279.346 309.523 278.102 309.523H276.055V314H274.273ZM276.055 308.133H278.07C278.872 308.133 279.432 307.938 279.75 307.547C280.073 307.151 280.234 306.654 280.234 306.055C280.234 305.461 280.073 304.974 279.75 304.594C279.432 304.214 278.872 304.023 278.07 304.023H276.055V308.133ZM280.609 314L277.875 308.758L279.688 308.562L282.602 314H280.609ZM283.469 310.031V309.781C283.469 308.531 283.831 307.521 284.555 306.75C285.279 305.974 286.24 305.586 287.438 305.586C288.635 305.586 289.596 305.974 290.32 306.75C291.049 307.521 291.414 308.531 291.414 309.781V310.031C291.414 311.286 291.049 312.302 290.32 313.078C289.596 313.849 288.635 314.234 287.438 314.234C286.24 314.234 285.279 313.849 284.555 313.078C283.831 312.302 283.469 311.286 283.469 310.031ZM285.234 309.742V310.078C285.234 310.896 285.419 311.565 285.789 312.086C286.164 312.607 286.714 312.867 287.438 312.867C288.161 312.867 288.711 312.607 289.086 312.086C289.461 311.565 289.648 310.896 289.648 310.078V309.742C289.648 308.924 289.461 308.258 289.086 307.742C288.711 307.221 288.161 306.961 287.438 306.961C286.719 306.961 286.172 307.221 285.797 307.742C285.422 308.258 285.234 308.924 285.234 309.742ZM293.062 311.016V305.82H294.797V311.047C294.797 311.672 294.932 312.115 295.203 312.375C295.474 312.635 295.854 312.766 296.344 312.766C296.771 312.766 297.148 312.648 297.477 312.414C297.805 312.174 298.057 311.872 298.234 311.508V305.82H299.969V314H298.367L298.312 312.984H298.266C297.99 313.349 297.638 313.635 297.211 313.844C296.789 314.052 296.318 314.156 295.797 314.156C294.974 314.156 294.312 313.917 293.812 313.438C293.312 312.953 293.062 312.146 293.062 311.016ZM301.062 307.117V305.82H305.859V307.117H301.062ZM302.445 311.836V306.547V306.32V303.789H304.172V311.805C304.172 312.185 304.242 312.451 304.383 312.602C304.529 312.753 304.747 312.828 305.039 312.828C305.18 312.828 305.315 312.812 305.445 312.781C305.581 312.75 305.714 312.711 305.844 312.664V314C305.714 314.057 305.539 314.109 305.32 314.156C305.102 314.203 304.862 314.227 304.602 314.227C303.951 314.227 303.427 314.036 303.031 313.656C302.641 313.271 302.445 312.664 302.445 311.836ZM307.367 314V305.82H309.102V314H307.367ZM307.188 303.391C307.188 303.115 307.276 302.883 307.453 302.695C307.635 302.503 307.896 302.406 308.234 302.406C308.573 302.406 308.833 302.503 309.016 302.695C309.198 302.883 309.289 303.115 309.289 303.391C309.289 303.672 309.198 303.909 309.016 304.102C308.833 304.289 308.573 304.383 308.234 304.383C307.896 304.383 307.635 304.289 307.453 304.102C307.276 303.909 307.188 303.672 307.188 303.391ZM311.344 314V305.82H312.945L313 306.836H313.047C313.312 306.477 313.659 306.193 314.086 305.984C314.513 305.771 314.984 305.664 315.5 305.664C316.328 305.664 316.992 305.901 317.492 306.375C317.997 306.844 318.25 307.641 318.25 308.766V314H316.516V308.742C316.516 308.138 316.38 307.708 316.109 307.453C315.844 307.193 315.464 307.062 314.969 307.062C314.552 307.062 314.177 307.177 313.844 307.406C313.51 307.635 313.255 307.938 313.078 308.312V314H311.344ZM320.258 316.25L321.18 315.055C321.393 315.289 321.711 315.505 322.133 315.703C322.555 315.901 323.026 316 323.547 316C324.203 316 324.724 315.807 325.109 315.422C325.5 315.036 325.695 314.477 325.695 313.742V313.07C325.471 313.398 325.159 313.661 324.758 313.859C324.362 314.052 323.885 314.148 323.328 314.148C322.292 314.148 321.458 313.766 320.828 313C320.203 312.234 319.891 311.247 319.891 310.039V309.789C319.891 308.576 320.203 307.586 320.828 306.82C321.453 306.049 322.289 305.664 323.336 305.664C323.883 305.664 324.367 305.779 324.789 306.008C325.216 306.237 325.529 306.516 325.727 306.844H325.766L325.82 305.82H327.422V313.711C327.422 314.904 327.068 315.818 326.359 316.453C325.651 317.089 324.737 317.406 323.617 317.406C322.93 317.406 322.294 317.297 321.711 317.078C321.133 316.859 320.648 316.583 320.258 316.25ZM321.656 310.07C321.656 310.852 321.826 311.5 322.164 312.016C322.503 312.531 323.031 312.789 323.75 312.789C324.229 312.789 324.635 312.656 324.969 312.391C325.307 312.125 325.549 311.82 325.695 311.477V308.359C325.544 308 325.299 307.69 324.961 307.43C324.628 307.164 324.221 307.031 323.742 307.031C323.029 307.031 322.503 307.289 322.164 307.805C321.826 308.32 321.656 308.969 321.656 309.75V310.07Z" fill="#442504"/>
</g>
<path d="M292 414C292 414.552 291.552 415 291 415C290.448 415 290 414.552 290 414L291 414L292 414ZM291 330L296.774 340L285.226 340L291 330ZM291 414L290 414L290 339L291 339L292 339L292 414L291 414Z" fill="#3C3E3E"/>
<path d="M291 336.72L291 408.12" stroke="#28B06A" stroke-width="2" stroke-dasharray="8 8"/>
<path d="M271 422.5H311C317.351 422.5 322.5 427.649 322.5 434V474C322.5 480.351 317.351 485.5 311 485.5H271C264.649 485.5 259.5 480.351 259.5 474V434C259.5 427.649 264.649 422.5 271 422.5Z" fill="#161717"/>
<path d="M271 422.5H311C317.351 422.5 322.5 427.649 322.5 434V474C322.5 480.351 317.351 485.5 311 485.5H271C264.649 485.5 259.5 480.351 259.5 474V434C259.5 427.649 264.649 422.5 271 422.5Z" stroke="#3C3E3E"/>
<path opacity="0.5" d="M283.969 446.25C283.969 442.383 287.133 439.219 291 439.219C294.867 439.219 298.031 442.383 298.031 446.25C298.031 450.117 294.867 453.281 291 453.281C287.133 453.281 283.969 450.117 283.969 446.25Z" fill="#9CA0A0"/>
<path d="M278.812 466.992C278.812 461.25 283.5 456.562 289.242 456.562H292.758C298.5 456.562 303.188 461.25 303.188 466.992C303.188 467.988 302.426 468.75 301.43 468.75H280.57C279.574 468.75 278.812 467.988 278.812 466.992Z" fill="#9CA0A0"/>
<rect x="249.5" y="494" width="83" height="22" rx="6" fill="#161717"/>
<path d="M258.156 506.039V505.789C258.156 504.555 258.49 503.549 259.156 502.773C259.828 501.992 260.747 501.602 261.914 501.602C263.003 501.602 263.828 501.893 264.391 502.477C264.953 503.06 265.234 503.719 265.234 504.453V504.492H263.852V504.453C263.852 504.005 263.698 503.612 263.391 503.273C263.083 502.935 262.594 502.766 261.922 502.766C261.13 502.766 260.547 503.057 260.172 503.641C259.797 504.219 259.609 504.935 259.609 505.789V506.039C259.609 506.888 259.797 507.604 260.172 508.188C260.547 508.771 261.128 509.062 261.914 509.062C262.591 509.062 263.083 508.893 263.391 508.555C263.698 508.216 263.852 507.823 263.852 507.375V507.336H265.234V507.375C265.234 508.104 264.953 508.763 264.391 509.352C263.828 509.94 263.003 510.234 261.914 510.234C260.747 510.234 259.828 509.844 259.156 509.062C258.49 508.281 258.156 507.273 258.156 506.039ZM266.836 507.109V501.828H268.258V507.125C268.258 507.781 268.404 508.253 268.695 508.539C268.992 508.82 269.411 508.961 269.953 508.961C270.417 508.961 270.823 508.836 271.172 508.586C271.526 508.331 271.805 508.005 272.008 507.609V501.828H273.43V510H272.141L272.078 508.945H272.039C271.742 509.32 271.38 509.617 270.953 509.836C270.526 510.049 270.052 510.156 269.531 510.156C268.708 510.156 268.052 509.922 267.562 509.453C267.078 508.984 266.836 508.203 266.836 507.109ZM275.203 507.586H276.633V507.633C276.633 508.107 276.805 508.464 277.148 508.703C277.497 508.943 277.958 509.062 278.531 509.062C279.104 509.062 279.555 508.948 279.883 508.719C280.216 508.49 280.383 508.193 280.383 507.828C280.383 507.464 280.247 507.185 279.977 506.992C279.711 506.794 279.141 506.591 278.266 506.383C277.385 506.174 276.688 505.883 276.172 505.508C275.656 505.133 275.398 504.609 275.398 503.938C275.398 503.266 275.674 502.708 276.227 502.266C276.784 501.823 277.529 501.602 278.461 501.602C279.388 501.602 280.135 501.823 280.703 502.266C281.271 502.703 281.555 503.299 281.555 504.055V504.102H280.133V504.031C280.133 503.635 279.995 503.326 279.719 503.102C279.448 502.878 279.029 502.766 278.461 502.766C277.888 502.766 277.469 502.87 277.203 503.078C276.943 503.286 276.812 503.547 276.812 503.859C276.812 504.172 276.961 504.422 277.258 504.609C277.56 504.792 278.151 504.987 279.031 505.195C279.911 505.404 280.589 505.701 281.062 506.086C281.542 506.471 281.781 507.026 281.781 507.75C281.781 508.474 281.51 509.07 280.969 509.539C280.427 510.003 279.615 510.234 278.531 510.234C277.448 510.234 276.622 509.997 276.055 509.523C275.487 509.049 275.203 508.419 275.203 507.633V507.586ZM282.406 502.922V501.828H287.055V502.922H282.406ZM283.867 507.969V502.484V502.258V499.766H285.289V507.969C285.289 508.344 285.362 508.609 285.508 508.766C285.659 508.922 285.891 509 286.203 509C286.349 509 286.49 508.987 286.625 508.961C286.766 508.93 286.909 508.888 287.055 508.836V510C286.919 510.062 286.745 510.117 286.531 510.164C286.318 510.211 286.081 510.234 285.82 510.234C285.227 510.234 284.753 510.055 284.398 509.695C284.044 509.331 283.867 508.755 283.867 507.969ZM287.938 506.039V505.789C287.938 504.555 288.286 503.549 288.984 502.773C289.682 501.992 290.615 501.602 291.781 501.602C292.948 501.602 293.88 501.992 294.578 502.773C295.276 503.549 295.625 504.555 295.625 505.789V506.039C295.625 507.273 295.276 508.281 294.578 509.062C293.88 509.844 292.948 510.234 291.781 510.234C290.615 510.234 289.682 509.844 288.984 509.062C288.286 508.281 287.938 507.273 287.938 506.039ZM289.391 505.789V506.039C289.391 506.888 289.591 507.604 289.992 508.188C290.393 508.771 290.99 509.062 291.781 509.062C292.573 509.062 293.167 508.771 293.562 508.188C293.964 507.604 294.164 506.888 294.164 506.039V505.789C294.164 504.94 293.964 504.224 293.562 503.641C293.167 503.057 292.573 502.766 291.781 502.766C290.99 502.766 290.393 503.057 289.992 503.641C289.591 504.224 289.391 504.94 289.391 505.789ZM297.43 510V501.828H298.719L298.773 502.883H298.82C299.112 502.513 299.464 502.219 299.875 502C300.286 501.781 300.745 501.672 301.25 501.672C301.797 501.672 302.268 501.781 302.664 502C303.065 502.219 303.37 502.573 303.578 503.062H303.617C303.961 502.573 304.339 502.219 304.75 502C305.167 501.781 305.646 501.672 306.188 501.672C307.031 501.672 307.69 501.906 308.164 502.375C308.643 502.844 308.883 503.625 308.883 504.719V510H307.453V504.703C307.453 504.047 307.312 503.578 307.031 503.297C306.755 503.016 306.359 502.875 305.844 502.875C305.396 502.875 305.003 503 304.664 503.25C304.331 503.5 304.065 503.823 303.867 504.219V510H302.445V504.703C302.445 504.047 302.305 503.578 302.023 503.297C301.742 503.016 301.344 502.875 300.828 502.875C300.38 502.875 299.987 503 299.648 503.25C299.315 503.5 299.049 503.823 298.852 504.219V510H297.43ZM310.609 506.039V505.789C310.609 504.555 310.945 503.549 311.617 502.773C312.294 501.992 313.188 501.602 314.297 501.602C315.406 501.602 316.26 501.966 316.859 502.695C317.458 503.419 317.758 504.404 317.758 505.648V506.234H311.477V505.094H316.32V504.914C316.32 504.32 316.151 503.815 315.812 503.398C315.479 502.977 314.992 502.766 314.352 502.766C313.586 502.766 313.013 503.057 312.633 503.641C312.253 504.224 312.062 504.94 312.062 505.789V506.039C312.062 506.888 312.263 507.604 312.664 508.188C313.065 508.771 313.685 509.062 314.523 509.062C315.044 509.062 315.49 508.951 315.859 508.727C316.234 508.497 316.539 508.227 316.773 507.914L317.695 508.641C317.435 509.031 317.034 509.396 316.492 509.734C315.956 510.068 315.299 510.234 314.523 510.234C313.258 510.234 312.289 509.844 311.617 509.062C310.945 508.281 310.609 507.273 310.609 506.039ZM319.523 510V501.828H320.812L320.867 502.883H320.914C321.122 502.539 321.396 502.24 321.734 501.984C322.073 501.729 322.477 501.602 322.945 501.602C323.06 501.602 323.18 501.615 323.305 501.641C323.43 501.661 323.518 501.682 323.57 501.703V503.023C323.466 503.003 323.357 502.987 323.242 502.977C323.128 502.966 323.003 502.961 322.867 502.961C322.404 502.961 322.005 503.083 321.672 503.328C321.344 503.573 321.102 503.88 320.945 504.25V510H319.523Z" fill="#9CA0A0"/>
<defs>
<filter id="filter0_d_6297_4228" x="241" y="292" width="100" height="34" filterUnits="userSpaceOnUse" color-interpolation-filters="sRGB">
<feFlood flood-opacity="0" result="BackgroundImageFix"/>
<feColorMatrix in="SourceAlpha" type="matrix" values="0 0 0 0 0 0 0 0 0 0 0 0 0 0 0 0 0 0 127 0" result="hardAlpha"/>
<feMorphology radius="4" operator="dilate" in="SourceAlpha" result="effect1_dropShadow_6297_4228"/>
<feOffset/>
<feComposite in2="hardAlpha" operator="out"/>
<feColorMatrix type="matrix" values="0 0 0 0 0.0352941 0 0 0 0 0.0431373 0 0 0 0 0.0431373 0 0 0 1 0"/>
<feBlend mode="normal" in2="BackgroundImageFix" result="effect1_dropShadow_6297_4228"/>
<feBlend mode="normal" in="SourceGraphic" in2="effect1_dropShadow_6297_4228" result="shape"/>
</filter>
<pattern id="pattern0_6297_4228" patternUnits="userSpaceOnUse" patternTransform="matrix(11 0 0 11 289.5 283)" preserveAspectRatio="none" viewBox="0 0 22 22" width="1" height="1">
<g id="pattern0_6297_4228_inner">
<rect opacity="0.8" width="4" height="4" rx="2" fill="#686D6D"/>
</g>
</pattern></defs>
</svg>
